<svg width="64" height="64" xmlns="http://www.w3.org/2000/svg">

 <g>
  <title>background</title>
  <rect fill="none" id="canvas_background" height="402" width="582" y="-1" x="-1"/>
 </g>
 <g>
  <title>Layer 1</title>
  <path fill="#8790a1" id="Fill-52" d="m32.1,55.9c-13.2,0 -23.9,-10.7 -23.9,-23.9c0,-13.2 10.7,-23.9 23.9,-23.9c13.2,0 23.9,10.7 23.9,23.9c0,13.1 -10.7,23.9 -23.9,23.9l0,0zm0,-45.3c-11.7,0 -21.3,9.6 -21.3,21.3c0,11.7 9.6,21.3 21.3,21.3s21.3,-9.6 21.3,-21.3c0,-11.7 -9.6,-21.3 -21.3,-21.3l0,0z" class="st0"/>
  <polyline fill="#8790a1" points="21.70001220703125,44.19999694824219 19.79998779296875,42.30000305175781 42.399993896484375,19.70001220703125 44.29998779296875,21.600006103515625 21.70001220703125,44.19999694824219 " id="Fill-53" class="st0"/>
  <polyline fill="#8790a1" points="42.399993896484375,44.19999694824219 19.79998779296875,21.600006103515625 21.70001220703125,19.70001220703125 44.29998779296875,42.30000305175781 42.399993896484375,44.19999694824219 " id="Fill-54" class="st0"/>
 </g>
</svg>