<svg width="348" height="365" viewBox="0 0 348 365" fill="none" xmlns="http://www.w3.org/2000/svg">
<g>
	<path d="M118.607 365H225.483C257.977 365 289.139 352.09 312.116 329.11C335.092 306.13 348 274.963 348 242.464C348 209.966 335.092 178.798 312.116 155.819C289.139 132.839 257.977 119.929 225.483 119.929H118.607" fill="#58B8E8"/>
<path d="M127 344H222.511C251.55 344 279.398 334.729 299.932 318.225C320.465 301.722 332 279.339 332 256C332 232.661 320.465 210.278 299.932 193.775C279.398 177.271 251.55 168 222.511 168H127" fill="url(#paint0_linear)"/>
</g>
<g>
<path opacity="0.8" d="M229.393 0H122.517C90.0234 0 58.8607 12.91 35.8844 35.8899C12.908 58.8698 0 90.0372 0 122.536C0 155.034 12.908 186.202 35.8844 209.182C58.8607 232.161 90.0234 245.071 122.517 245.071H229.393" fill="#1574FF"/>
<path opacity="0.8" d="M229 21H138.614C111.134 21 84.7791 30.2714 65.3477 46.7746C45.9164 63.2778 35 85.6609 35 109C35 132.339 45.9164 154.722 65.3477 171.225C84.7791 187.729 111.134 197 138.614 197H229" fill="url(#paint1_linear)"/>	
</g>
<defs>
<linearGradient id="paint0_linear" x1="355.606" y1="247" x2="168.506" y2="260.182" gradientUnits="userSpaceOnUse">
<stop stop-color="white"/>
<stop offset="1" stop-color="#58B8E8"/>
</linearGradient>
<linearGradient id="paint1_linear" x1="12.6606" y1="118" x2="189.813" y2="106.188" gradientUnits="userSpaceOnUse">
<stop stop-color="white"/>
<stop offset="1" stop-color="#1574FF"/>
</linearGradient>
</defs>
</svg>
